<svg width="32" height="32" viewBox="0 0 32 32" fill="none" xmlns="http://www.w3.org/2000/svg">
  <!-- Corpo principal do camarão - forma simples e reconhecível -->
  <path d="M6 16C6 12 10 8 16 8C22 8 26 12 26 16C26 20 22 24 16 24C10 24 6 20 6 16Z" fill="#FF6B6B"/>
  
  <!-- Cauda -->
  <path d="M4 14C4 12 5 10 7 10C9 10 10 12 10 14C10 16 9 18 7 18C5 18 4 16 4 14Z" fill="#FF6B6B"/>
  
  <!-- Cabeça -->
  <circle cx="24" cy="16" r="3" fill="#FF6B6B"/>
  
  <!-- Olho -->
  <circle cx="25" cy="15" r="1" fill="#FFFFFF"/>
  
  <!-- Antenas -->
  <line x1="22" y1="14" x2="26" y2="12" stroke="#FF6B6B" stroke-width="2" stroke-linecap="round"/>
  <line x1="22" y1="16" x2="26" y2="14" stroke="#FF6B6B" stroke-width="2" stroke-linecap="round"/>
</svg>
