<svg width="204" height="215" viewBox="0 0 204 215" fill="none" xmlns="http://www.w3.org/2000/svg">
<path d="M168.628 164C170.228 152.4 165.295 148.5 162.628 148C159.028 147.6 156.795 149.5 156.128 150.5C153.728 153.3 147.462 158 144.628 160C142.628 161.5 137.128 164.5 135.628 165.5C134.428 166.3 132.795 167.5 132.128 168C129.328 170.4 130.295 173.333 131.128 174.5C133.528 177.3 136.128 176.333 137.128 175.5C145.528 168.3 150.628 166.833 152.128 167H164.628C167.028 167 168.295 165 168.628 164Z" fill="#FDBFBD"/>
<path d="M179.128 181C180.328 185.8 175.295 188 172.628 188.5C165.828 189.7 142.462 190 131.628 190C130.828 190 130.962 188.333 131.128 187.5C131.528 185.9 133.962 184.5 135.128 184C136.728 183.2 141.462 183 143.628 183H157.628C160.828 183 162.295 181 162.628 180C165.028 173.6 169.628 172.333 171.628 172.5C176.428 172.5 178.628 178.167 179.128 181Z" fill="#FDBFBD"/>
<path d="M163.628 197C156.429 199 150.295 196.833 148.128 195.5C146.376 193.998 142.182 193.592 138.267 193.622C135.721 193.581 130.828 193.6 131.628 194C132.428 194.4 139.295 199.833 142.628 202.5L154.628 211.5C160.228 215.5 164.628 214.5 166.128 213.5C174.128 209.1 176.462 200.667 176.628 197C176.628 192 173.628 194 173.128 194C170.728 195.2 165.795 196.5 163.628 197Z" fill="#FDBFBD"/>
<path d="M120.628 164.5C109.028 164.5 94.4617 159.833 88.6284 157.5C77.0284 171.5 72.7951 182.667 72.1284 186.5C90.5284 190.1 105.462 190.333 110.628 190C118.228 190 120.462 173 120.628 164.5Z" fill="#FDBFBD"/>
<path d="M63.1284 181.5C70.3284 176.3 77.4617 160.667 80.1284 153.5C74.9284 145.5 67.2951 140.5 64.1284 139C59.7284 142.6 50.6284 147.833 46.6284 150C35.4284 155.2 31.2951 162.167 30.6284 165C38.2284 175.4 47.4617 180.667 51.1284 182C57.9284 184 61.9617 182.5 63.1284 181.5Z" fill="#FDBFBD"/>
<path d="M48.6284 134C39.4284 139.6 27.1284 150.333 22.1284 155C11.7284 149.4 5.12839 134.333 3.12839 127.5C1.52838 119.9 6.12839 118.333 8.62839 118.5C29.4284 118.5 49.9617 119.833 57.6284 120.5C62.0284 120.9 61.4617 123.333 60.6284 124.5C57.8284 128.1 51.4617 132.333 48.6284 134Z" fill="#FDBFBD"/>
<path d="M55.6284 85.4999C67.6284 95.4999 59.6284 106.667 54.1284 111C40.4617 110.333 12.0284 108.8 7.62839 108C3.22839 107.2 1.46172 100.333 1.12839 96.9999C0.328384 87.3999 3.46172 76.3332 5.12839 71.9999C7.29506 67.3332 14.4284 59.3999 25.6284 64.9999C36.8284 70.5999 50.2951 80.9999 55.6284 85.4999Z" fill="#FDBFBD"/>
<path d="M64.1284 80.9999C51.7284 76.1999 36.9617 62.6666 31.1284 56.4999C27.5284 52.0999 29.6284 47 31.1284 45C51.9284 18.2 80.7951 12.1667 92.6284 12.5C96.2284 -3.1 101.795 2.33333 104.128 7C106.928 12.2 115.628 7.5 119.628 4.5C118.028 10.1 120.628 10.5 122.128 10L138.628 3C137.828 7.4 139.628 7.83333 140.628 7.5L157.628 1C155.628 6.2 158.462 6.83333 160.128 6.5L178.128 2.5C177.328 5.7 178.795 6.16667 179.628 6L194.628 4.49997C205.028 4.09997 203.628 6.33331 201.628 7.49997C190.028 13.5 171.462 18 163.628 19.5C159.962 20.1666 150.928 22.1 144.128 24.5C135.628 27.5 129.628 33 127.628 36.5C126.028 39.3 128.628 42 130.128 43C136.528 46.6 147.795 44.1666 152.628 42.5C160.628 39.8333 177.628 34.4 181.628 34C185.628 33.6 183.962 34.8333 182.628 35.5C175.795 38.1666 160.928 43.8 156.128 45C151.328 46.2 154.128 48.1666 156.128 49C167.628 54 191.928 64.7999 197.128 68C202.328 71.2 198.962 70.6666 196.628 70C183.795 64.8333 156.528 54.0999 150.128 52.4999C143.728 50.8999 137.462 51.4999 135.128 51.9999C132.962 52.6666 128.628 54.7999 128.628 57.9999C128.628 61.1999 135.628 63.9999 139.128 64.9999C126.328 70.1999 115.795 66.4999 112.128 63.9999C109.128 67.8333 100.328 76.5999 89.1284 80.9999C77.9284 85.3999 67.7951 82.8333 64.1284 80.9999Z" fill="#FDBFBD"/>
<path d="M85.6284 93C80.4284 98.6 73.1284 95.3333 70.1284 93C68.7951 97.5 67.2284 107.6 71.6284 112C76.0284 116.4 80.1284 113.833 81.6284 112C84.4618 108.5 90.3284 99.8 91.1284 93C91.9284 86.2 87.7951 90.1667 85.6284 93Z" fill="#FDBFBD"/>
<path d="M82.6284 119.5C75.8284 117.5 72.4617 122 71.6284 124.5C77.6284 134.5 85.4617 140 88.6284 141.5V132L82.6284 119.5Z" fill="#FDBFBD"/>
<path d="M132.128 194C133.687 193.813 135.927 193.64 138.267 193.622M138.267 193.622C142.182 193.592 146.376 193.998 148.128 195.5C150.295 196.833 156.429 199 163.628 197C165.795 196.5 170.728 195.2 173.128 194C173.628 194 176.628 192 176.628 197C176.462 200.667 174.128 209.1 166.128 213.5C164.628 214.5 160.228 215.5 154.628 211.5L142.628 202.5C139.295 199.833 132.428 194.4 131.628 194C130.828 193.6 135.721 193.581 138.267 193.622ZM162.628 148C165.295 148.5 170.228 152.4 168.628 164C168.295 165 167.028 167 164.628 167H152.128C150.628 166.833 145.528 168.3 137.128 175.5C136.128 176.333 133.528 177.3 131.128 174.5C130.295 173.333 129.328 170.4 132.128 168C132.795 167.5 134.428 166.3 135.628 165.5C137.128 164.5 142.628 161.5 144.628 160C147.462 158 153.728 153.3 156.128 150.5C156.795 149.5 159.028 147.6 162.628 148ZM131.628 190C142.462 190 165.828 189.7 172.628 188.5C175.295 188 180.328 185.8 179.128 181C178.628 178.167 176.428 172.5 171.628 172.5C169.628 172.333 165.028 173.6 162.628 180C162.295 181 160.828 183 157.628 183H143.628C141.462 183 136.728 183.2 135.128 184C133.962 184.5 131.528 185.9 131.128 187.5C130.962 188.333 130.828 190 131.628 190ZM88.6284 157.5C94.4617 159.833 109.028 164.5 120.628 164.5C120.462 173 118.228 190 110.628 190C105.462 190.333 90.5284 190.1 72.1284 186.5C72.7951 182.667 77.0284 171.5 88.6284 157.5ZM80.1284 153.5C77.4617 160.667 70.3284 176.3 63.1284 181.5C61.9617 182.5 57.9284 184 51.1284 182C47.4617 180.667 38.2284 175.4 30.6284 165C31.2951 162.167 35.4284 155.2 46.6284 150C50.6284 147.833 59.7284 142.6 64.1284 139C67.2951 140.5 74.9284 145.5 80.1284 153.5ZM22.1284 155C27.1284 150.333 39.4284 139.6 48.6284 134C51.4617 132.333 57.8284 128.1 60.6284 124.5C61.4617 123.333 62.0284 120.9 57.6284 120.5C49.9617 119.833 29.4284 118.5 8.62839 118.5C6.12839 118.333 1.52839 119.9 3.12839 127.5C5.12839 134.333 11.7284 149.4 22.1284 155ZM54.1284 111C59.6284 106.667 67.6284 95.4999 55.6284 85.4999C50.2951 80.9999 36.8284 70.5999 25.6284 64.9999C14.4284 59.3999 7.29505 67.3332 5.12839 71.9999C3.46172 76.3332 0.328387 87.3999 1.12839 96.9999C1.46172 100.333 3.22839 107.2 7.62839 108C12.0284 108.8 40.4617 110.333 54.1284 111ZM31.1284 56.4999C36.9617 62.6666 51.7284 76.1999 64.1284 80.9999C67.7951 82.8333 77.9284 85.3999 89.1284 80.9999C100.328 76.5999 109.128 67.8333 112.128 63.9999C115.795 66.4999 126.328 70.1999 139.128 64.9999C135.628 63.9999 128.628 61.1999 128.628 57.9999C128.628 54.7999 132.962 52.6666 135.128 51.9999C137.462 51.4999 143.728 50.8999 150.128 52.4999C156.528 54.0999 183.795 64.8333 196.628 70C198.962 70.6666 202.328 71.2 197.128 68C191.928 64.7999 167.628 54 156.128 49C154.128 48.1666 151.328 46.2 156.128 45C160.928 43.8 175.795 38.1666 182.628 35.5C183.962 34.8333 185.628 33.6 181.628 34C177.628 34.4 160.628 39.8333 152.628 42.5C147.795 44.1666 136.528 46.6 130.128 43C128.628 42 126.028 39.3 127.628 36.5C129.628 33 135.628 27.5 144.128 24.5C150.928 22.1 159.962 20.1666 163.628 19.5C171.462 18 190.028 13.5 201.628 7.49997C203.628 6.33331 205.028 4.09997 194.628 4.49997L179.628 6C178.795 6.16667 177.328 5.7 178.128 2.5L160.128 6.5C158.462 6.83333 155.628 6.2 157.628 1L140.628 7.5C139.628 7.83333 137.828 7.4 138.628 3L122.128 10C120.628 10.5 118.028 10.1 119.628 4.5C115.628 7.5 106.928 12.2 104.128 7C101.795 2.33333 96.2284 -3.1 92.6284 12.5C80.7951 12.1667 51.9284 18.2 31.1284 45C29.6284 47 27.5284 52.0999 31.1284 56.4999ZM70.1284 93C73.1284 95.3333 80.4284 98.6 85.6284 93C87.7951 90.1667 91.9284 86.2 91.1284 93C90.3284 99.8 84.4618 108.5 81.6284 112C80.1284 113.833 76.0284 116.4 71.6284 112C67.2284 107.6 68.7951 97.5 70.1284 93ZM71.6284 124.5C72.4618 122 75.8284 117.5 82.6284 119.5L88.6284 132V141.5C85.4617 140 77.6284 134.5 71.6284 124.5Z" stroke="#927474"/>
</svg>
