<svg width="25" height="24" viewBox="0 0 25 24" fill="none" xmlns="http://www.w3.org/2000/svg">
<path fill-rule="evenodd" clip-rule="evenodd" d="M3.0192 7.82274C2.5 8.77128 2.5 9.91549 2.5 12.2039V13.725C2.5 17.6258 2.5 19.5763 3.67157 20.7881C4.84315 22 6.72876 22 10.5 22H14.5C18.2712 22 20.1569 22 21.3284 20.7881C22.5 19.5763 22.5 17.6258 22.5 13.725V12.2039C22.5 9.91549 22.5 8.77128 21.9808 7.82274C21.4616 6.87421 20.5131 6.28551 18.616 5.10812L16.616 3.86687C14.6106 2.62229 13.6079 2 12.5 2C11.3921 2 10.3894 2.62229 8.38403 3.86687L6.38403 5.10813C4.48695 6.28551 3.5384 6.87421 3.0192 7.82274ZM9.5 17.25C9.08579 17.25 8.75 17.5858 8.75 18C8.75 18.4142 9.08579 18.75 9.5 18.75H15.5C15.9142 18.75 16.25 18.4142 16.25 18C16.25 17.5858 15.9142 17.25 15.5 17.25H9.5Z" fill="url(#paint0_linear_573_71)"/>
<defs>
<linearGradient id="paint0_linear_573_71" x1="12.5" y1="22" x2="12.5" y2="2" gradientUnits="userSpaceOnUse">
<stop stop-color="#FEC6C8"/>
<stop offset="1" stop-color="#B5D7FE"/>
</linearGradient>
</defs>
</svg>
