<svg width="1255" height="215" viewBox="0 0 1255 215" fill="none" xmlns="http://www.w3.org/2000/svg">
<path d="M168.628 164C170.228 152.4 165.295 148.5 162.628 148C159.028 147.6 156.795 149.5 156.128 150.5C153.728 153.3 147.462 158 144.628 160C142.628 161.5 137.128 164.5 135.628 165.5C134.428 166.3 132.795 167.5 132.128 168C129.328 170.4 130.295 173.333 131.128 174.5C133.528 177.3 136.128 176.333 137.128 175.5C145.528 168.3 150.628 166.833 152.128 167H164.628C167.028 167 168.295 165 168.628 164Z" fill="#FDBFBD"/>
<path d="M179.128 181C180.328 185.8 175.295 188 172.628 188.5C165.828 189.7 142.462 190 131.628 190C130.828 190 130.962 188.333 131.128 187.5C131.528 185.9 133.962 184.5 135.128 184C136.728 183.2 141.462 183 143.628 183H157.628C160.828 183 162.295 181 162.628 180C165.028 173.6 169.628 172.333 171.628 172.5C176.428 172.5 178.628 178.167 179.128 181Z" fill="#FDBFBD"/>
<path d="M163.628 197C156.429 199 150.295 196.833 148.128 195.5C146.376 193.998 142.182 193.592 138.267 193.622C135.721 193.581 130.828 193.6 131.628 194C132.428 194.4 139.295 199.833 142.628 202.5L154.628 211.5C160.228 215.5 164.628 214.5 166.128 213.5C174.128 209.1 176.462 200.667 176.628 197C176.628 192 173.628 194 173.128 194C170.728 195.2 165.795 196.5 163.628 197Z" fill="#FDBFBD"/>
<path d="M120.628 164.5C109.028 164.5 94.4617 159.833 88.6284 157.5C77.0284 171.5 72.7951 182.667 72.1284 186.5C90.5284 190.1 105.462 190.333 110.628 190C118.228 190 120.462 173 120.628 164.5Z" fill="#FDBFBD"/>
<path d="M63.1284 181.5C70.3284 176.3 77.4617 160.667 80.1284 153.5C74.9284 145.5 67.2951 140.5 64.1284 139C59.7284 142.6 50.6284 147.833 46.6284 150C35.4284 155.2 31.2951 162.167 30.6284 165C38.2284 175.4 47.4617 180.667 51.1284 182C57.9284 184 61.9617 182.5 63.1284 181.5Z" fill="#FDBFBD"/>
<path d="M48.6284 134C39.4284 139.6 27.1284 150.333 22.1284 155C11.7284 149.4 5.12839 134.333 3.12839 127.5C1.52838 119.9 6.12839 118.333 8.62839 118.5C29.4284 118.5 49.9617 119.833 57.6284 120.5C62.0284 120.9 61.4617 123.333 60.6284 124.5C57.8284 128.1 51.4617 132.333 48.6284 134Z" fill="#FDBFBD"/>
<path d="M55.6284 85.4999C67.6284 95.4999 59.6284 106.667 54.1284 111C40.4617 110.333 12.0284 108.8 7.62839 108C3.22839 107.2 1.46172 100.333 1.12839 96.9999C0.328384 87.3999 3.46172 76.3332 5.12839 71.9999C7.29506 67.3332 14.4284 59.3999 25.6284 64.9999C36.8284 70.5999 50.2951 80.9999 55.6284 85.4999Z" fill="#FDBFBD"/>
<path d="M64.1284 80.9999C51.7284 76.1999 36.9617 62.6666 31.1284 56.4999C27.5284 52.0999 29.6284 47 31.1284 45C51.9284 18.2 80.7951 12.1667 92.6284 12.5C96.2284 -3.1 101.795 2.33333 104.128 7C106.928 12.2 115.628 7.5 119.628 4.5C118.028 10.1 120.628 10.5 122.128 10L138.628 3C137.828 7.4 139.628 7.83333 140.628 7.5L157.628 1C155.628 6.2 158.462 6.83333 160.128 6.5L178.128 2.5C177.328 5.7 178.795 6.16667 179.628 6L194.628 4.49997C205.028 4.09997 203.628 6.33331 201.628 7.49997C190.028 13.5 171.462 18 163.628 19.5C159.962 20.1666 150.928 22.1 144.128 24.5C135.628 27.5 129.628 33 127.628 36.5C126.028 39.3 128.628 42 130.128 43C136.528 46.6 147.795 44.1666 152.628 42.5C160.628 39.8333 177.628 34.4 181.628 34C185.628 33.6 183.962 34.8333 182.628 35.5C175.795 38.1666 160.928 43.8 156.128 45C151.328 46.2 154.128 48.1666 156.128 49C167.628 54 191.928 64.7999 197.128 68C202.328 71.2 198.962 70.6666 196.628 70C183.795 64.8333 156.528 54.0999 150.128 52.4999C143.728 50.8999 137.462 51.4999 135.128 51.9999C132.962 52.6666 128.628 54.7999 128.628 57.9999C128.628 61.1999 135.628 63.9999 139.128 64.9999C126.328 70.1999 115.795 66.4999 112.128 63.9999C109.128 67.8333 100.328 76.5999 89.1284 80.9999C77.9284 85.3999 67.7951 82.8333 64.1284 80.9999Z" fill="#FDBFBD"/>
<path d="M85.6284 93C80.4284 98.6 73.1284 95.3333 70.1284 93C68.7951 97.5 67.2284 107.6 71.6284 112C76.0284 116.4 80.1284 113.833 81.6284 112C84.4618 108.5 90.3284 99.8 91.1284 93C91.9284 86.2 87.7951 90.1667 85.6284 93Z" fill="#FDBFBD"/>
<path d="M82.6284 119.5C75.8284 117.5 72.4617 122 71.6284 124.5C77.6284 134.5 85.4617 140 88.6284 141.5V132L82.6284 119.5Z" fill="#FDBFBD"/>
<path d="M132.128 194C133.687 193.813 135.927 193.64 138.267 193.622M138.267 193.622C142.182 193.592 146.376 193.998 148.128 195.5C150.295 196.833 156.429 199 163.628 197C165.795 196.5 170.728 195.2 173.128 194C173.628 194 176.628 192 176.628 197C176.462 200.667 174.128 209.1 166.128 213.5C164.628 214.5 160.228 215.5 154.628 211.5L142.628 202.5C139.295 199.833 132.428 194.4 131.628 194C130.828 193.6 135.721 193.581 138.267 193.622ZM162.628 148C165.295 148.5 170.228 152.4 168.628 164C168.295 165 167.028 167 164.628 167H152.128C150.628 166.833 145.528 168.3 137.128 175.5C136.128 176.333 133.528 177.3 131.128 174.5C130.295 173.333 129.328 170.4 132.128 168C132.795 167.5 134.428 166.3 135.628 165.5C137.128 164.5 142.628 161.5 144.628 160C147.462 158 153.728 153.3 156.128 150.5C156.795 149.5 159.028 147.6 162.628 148ZM131.628 190C142.462 190 165.828 189.7 172.628 188.5C175.295 188 180.328 185.8 179.128 181C178.628 178.167 176.428 172.5 171.628 172.5C169.628 172.333 165.028 173.6 162.628 180C162.295 181 160.828 183 157.628 183H143.628C141.462 183 136.728 183.2 135.128 184C133.962 184.5 131.528 185.9 131.128 187.5C130.962 188.333 130.828 190 131.628 190ZM88.6284 157.5C94.4617 159.833 109.028 164.5 120.628 164.5C120.462 173 118.228 190 110.628 190C105.462 190.333 90.5284 190.1 72.1284 186.5C72.7951 182.667 77.0284 171.5 88.6284 157.5ZM80.1284 153.5C77.4617 160.667 70.3284 176.3 63.1284 181.5C61.9617 182.5 57.9284 184 51.1284 182C47.4617 180.667 38.2284 175.4 30.6284 165C31.2951 162.167 35.4284 155.2 46.6284 150C50.6284 147.833 59.7284 142.6 64.1284 139C67.2951 140.5 74.9284 145.5 80.1284 153.5ZM22.1284 155C27.1284 150.333 39.4284 139.6 48.6284 134C51.4617 132.333 57.8284 128.1 60.6284 124.5C61.4617 123.333 62.0284 120.9 57.6284 120.5C49.9617 119.833 29.4284 118.5 8.62839 118.5C6.12839 118.333 1.52839 119.9 3.12839 127.5C5.12839 134.333 11.7284 149.4 22.1284 155ZM54.1284 111C59.6284 106.667 67.6284 95.4999 55.6284 85.4999C50.2951 80.9999 36.8284 70.5999 25.6284 64.9999C14.4284 59.3999 7.29505 67.3332 5.12839 71.9999C3.46172 76.3332 0.328387 87.3999 1.12839 96.9999C1.46172 100.333 3.22839 107.2 7.62839 108C12.0284 108.8 40.4617 110.333 54.1284 111ZM31.1284 56.4999C36.9617 62.6666 51.7284 76.1999 64.1284 80.9999C67.7951 82.8333 77.9284 85.3999 89.1284 80.9999C100.328 76.5999 109.128 67.8333 112.128 63.9999C115.795 66.4999 126.328 70.1999 139.128 64.9999C135.628 63.9999 128.628 61.1999 128.628 57.9999C128.628 54.7999 132.962 52.6666 135.128 51.9999C137.462 51.4999 143.728 50.8999 150.128 52.4999C156.528 54.0999 183.795 64.8333 196.628 70C198.962 70.6666 202.328 71.2 197.128 68C191.928 64.7999 167.628 54 156.128 49C154.128 48.1666 151.328 46.2 156.128 45C160.928 43.8 175.795 38.1666 182.628 35.5C183.962 34.8333 185.628 33.6 181.628 34C177.628 34.4 160.628 39.8333 152.628 42.5C147.795 44.1666 136.528 46.6 130.128 43C128.628 42 126.028 39.3 127.628 36.5C129.628 33 135.628 27.5 144.128 24.5C150.928 22.1 159.962 20.1666 163.628 19.5C171.462 18 190.028 13.5 201.628 7.49997C203.628 6.33331 205.028 4.09997 194.628 4.49997L179.628 6C178.795 6.16667 177.328 5.7 178.128 2.5L160.128 6.5C158.462 6.83333 155.628 6.2 157.628 1L140.628 7.5C139.628 7.83333 137.828 7.4 138.628 3L122.128 10C120.628 10.5 118.028 10.1 119.628 4.5C115.628 7.5 106.928 12.2 104.128 7C101.795 2.33333 96.2284 -3.1 92.6284 12.5C80.7951 12.1667 51.9284 18.2 31.1284 45C29.6284 47 27.5284 52.0999 31.1284 56.4999ZM70.1284 93C73.1284 95.3333 80.4284 98.6 85.6284 93C87.7951 90.1667 91.9284 86.2 91.1284 93C90.3284 99.8 84.4618 108.5 81.6284 112C80.1284 113.833 76.0284 116.4 71.6284 112C67.2284 107.6 68.7951 97.5 70.1284 93ZM71.6284 124.5C72.4618 122 75.8284 117.5 82.6284 119.5L88.6284 132V141.5C85.4617 140 77.6284 134.5 71.6284 124.5Z" stroke="#927474"/>
<path d="M255.875 127.176C255.875 123.749 257.038 120.872 259.363 118.547C261.811 116.099 264.749 114.875 268.176 114.875H296.266L291.492 101.289C289.534 96.2708 287.576 91.5586 285.617 87.1523C283.781 82.6237 281.639 78.5234 279.191 74.8516C276.988 71.1797 274.479 69.2214 271.664 68.9766C268.727 69.2214 266.095 71.1797 263.77 74.8516C261.444 78.5234 259.302 82.6237 257.344 87.1523C255.508 91.5586 253.611 96.2708 251.652 101.289L234.211 149.023C232.987 151.594 231.396 153.736 229.438 155.449C227.602 157.04 224.786 157.836 220.992 157.836C217.443 157.836 214.505 156.612 212.18 154.164C209.977 151.716 208.997 148.779 209.242 145.352C209.365 143.76 209.732 142.292 210.344 140.945L230.539 88.8047C236.169 75.0964 241.799 64.0195 247.43 55.5742C252.938 47.2513 261.016 43.0286 271.664 42.9062C282.19 43.0286 290.207 47.2513 295.715 55.5742C301.345 63.7747 306.975 74.8516 312.605 88.8047L332.801 140.945C333.413 142.292 333.78 143.76 333.902 145.352C334.147 148.779 333.107 151.716 330.781 154.164C328.578 156.612 325.702 157.836 322.152 157.836C318.113 157.836 315.115 157.04 313.156 155.449C311.32 153.736 309.79 151.594 308.566 149.023L305.078 139.477H268.176C264.749 139.477 261.872 138.253 259.547 135.805C257.099 133.479 255.875 130.603 255.875 127.176ZM389.304 42.3555C393.587 42.3555 397.749 43.0898 401.788 44.5586C405.949 46.0273 409.927 48.1693 413.722 50.9844C414.334 51.5964 415.007 52.2083 415.741 52.8203C416.353 52.2083 417.026 51.5964 417.761 50.9844C421.555 48.1693 425.472 46.0273 429.511 44.5586C433.672 43.0898 437.834 42.3555 441.995 42.3555C446.279 42.3555 450.44 43.0898 454.479 44.5586C458.641 46.0273 462.557 48.2305 466.229 51.168C470.024 53.9831 473.328 57.7773 476.143 62.5508C479.081 67.3242 480.55 73.0156 480.55 79.625V145.902C479.815 153.246 475.776 157.224 468.432 157.836C465.005 157.836 462.007 156.734 459.436 154.531C456.988 152.206 455.765 149.329 455.765 145.902V81.0938C455.765 78.1562 455.214 75.7083 454.112 73.75C453.011 71.6693 451.787 70.0781 450.44 68.9766C449.094 67.7526 447.686 66.8958 446.218 66.4062C444.749 65.7943 443.28 65.4883 441.811 65.4883C440.343 65.4883 438.874 65.7943 437.405 66.4062C436.059 66.8958 434.712 67.7526 433.366 68.9766C432.02 70.0781 430.796 71.6693 429.694 73.75C428.593 75.7083 427.981 78.1562 427.858 81.0938V145.902C427.124 153.246 423.085 157.224 415.741 157.836C412.314 157.836 409.315 156.734 406.745 154.531C404.297 152.206 403.073 149.329 403.073 145.902V81.0938C403.073 78.1562 402.522 75.7083 401.421 73.75C400.319 71.6693 399.095 70.0781 397.749 68.9766C396.403 67.7526 394.995 66.8958 393.526 66.4062C392.057 65.7943 390.589 65.4883 389.12 65.4883C387.651 65.4883 386.182 65.7943 384.714 66.4062C383.367 66.8958 382.021 67.7526 380.675 68.9766C379.328 70.0781 378.104 71.6693 377.003 73.75C375.901 75.7083 375.289 78.1562 375.167 81.0938V145.902C374.555 153.246 370.577 157.224 363.233 157.836C359.806 157.836 356.807 156.734 354.237 154.531C351.789 152.206 350.565 149.329 350.565 145.902V79.625C350.81 73.0156 352.34 67.3242 355.155 62.5508C357.97 57.7773 361.275 53.9831 365.069 51.168C368.863 48.2305 372.78 46.0273 376.819 44.5586C380.981 43.0898 385.142 42.3555 389.304 42.3555ZM543.111 127.176C543.111 123.749 544.274 120.872 546.599 118.547C549.047 116.099 551.985 114.875 555.412 114.875H583.502L578.728 101.289C576.77 96.2708 574.812 91.5586 572.853 87.1523C571.017 82.6237 568.875 78.5234 566.427 74.8516C564.224 71.1797 561.715 69.2214 558.9 68.9766C555.963 69.2214 553.331 71.1797 551.006 74.8516C548.68 78.5234 546.538 82.6237 544.58 87.1523C542.744 91.5586 540.847 96.2708 538.888 101.289L521.447 149.023C520.223 151.594 518.632 153.736 516.674 155.449C514.838 157.04 512.023 157.836 508.228 157.836C504.679 157.836 501.741 156.612 499.416 154.164C497.213 151.716 496.233 148.779 496.478 145.352C496.601 143.76 496.968 142.292 497.58 140.945L517.775 88.8047C523.405 75.0964 529.036 64.0195 534.666 55.5742C540.174 47.2513 548.252 43.0286 558.9 42.9062C569.426 43.0286 577.443 47.2513 582.951 55.5742C588.581 63.7747 594.211 74.8516 599.842 88.8047L620.037 140.945C620.649 142.292 621.016 143.76 621.138 145.352C621.383 148.779 620.343 151.716 618.017 154.164C615.814 156.612 612.938 157.836 609.388 157.836C605.349 157.836 602.351 157.04 600.392 155.449C598.556 153.736 597.026 151.594 595.802 149.023L592.314 139.477H555.412C551.985 139.477 549.108 138.253 546.783 135.805C544.335 133.479 543.111 130.603 543.111 127.176ZM662.403 146.27C661.669 153.613 657.63 157.591 650.286 158.203C646.859 158.203 643.86 157.102 641.29 154.898C638.842 152.573 637.618 149.697 637.618 146.27V59.2461C637.74 55.819 639.025 53.0039 641.473 50.8008C643.921 48.4753 646.859 47.3125 650.286 47.3125H659.282H681.864H727.212C727.946 47.3125 728.68 47.3737 729.415 47.4961H730.516C739.084 47.7409 746.122 49.6992 751.63 53.3711C757.137 57.043 761.115 61.2656 763.563 66.0391C766.011 70.6901 767.235 75.4023 767.235 80.1758C767.235 85.0716 766.011 89.9062 763.563 94.6797C761.238 99.3307 757.26 103.492 751.63 107.164C746.122 110.836 739.084 112.794 730.516 113.039H698.204C699.183 119.159 701.202 123.688 704.262 126.625C707.2 129.562 710.933 131.031 715.462 131.031H755.118C758.545 131.154 761.36 132.439 763.563 134.887C765.889 137.335 767.051 140.272 767.051 143.699C766.929 147.004 765.705 149.819 763.38 152.145C761.176 154.348 758.422 155.51 755.118 155.633H712.157C703.1 155.755 694.899 152.206 687.555 144.984C680.212 137.763 675.744 129.195 674.153 119.281C671.95 108.266 670.848 102.085 670.848 100.738C670.848 97.3112 672.011 94.4349 674.337 92.1094C676.784 89.6615 679.722 88.4375 683.149 88.4375H731.618C733.943 88.3151 735.84 87.8255 737.309 86.9688C738.9 85.9896 740.063 84.9492 740.797 83.8477C741.532 82.6237 741.899 81.3997 741.899 80.1758C741.899 78.9518 741.532 77.7891 740.797 76.6875C740.063 75.4635 738.9 74.4232 737.309 73.5664C735.84 72.5872 733.943 72.0365 731.618 71.9141H681.864H667.176C663.994 72.0365 662.403 73.6276 662.403 76.6875V146.27ZM781.328 143.332C781.328 139.905 782.49 137.029 784.816 134.703C787.264 132.255 790.201 131.031 793.628 131.031H828.878V71.9141H793.628C790.201 71.9141 787.325 70.6901 785 68.2422C782.552 65.9167 781.328 63.0404 781.328 59.6133C781.328 56.1862 782.49 53.3099 784.816 50.9844C787.264 48.5365 790.201 47.3125 793.628 47.3125H888.73C892.157 47.3125 895.095 48.4753 897.542 50.8008C899.868 53.2487 901.031 56.1862 901.031 59.6133C901.031 63.0404 899.807 65.9779 897.359 68.4258C895.033 70.7513 892.157 71.9141 888.73 71.9141H853.664V131.031H888.73C892.157 131.031 895.095 132.194 897.542 134.52C899.868 136.967 901.031 139.905 901.031 143.332C901.031 146.759 899.807 149.697 897.359 152.145C895.033 154.47 892.157 155.633 888.73 155.633H793.628C790.201 155.633 787.325 154.409 785 151.961C782.552 149.635 781.328 146.759 781.328 143.332ZM914.205 59.6133C914.205 56.1862 915.368 53.3099 917.694 50.9844C920.142 48.5365 923.079 47.3125 926.506 47.3125H1033.36C1036.78 47.3125 1039.72 48.4753 1042.17 50.8008C1044.5 53.2487 1045.66 56.1862 1045.66 59.6133C1045.66 63.0404 1044.5 65.9167 1042.17 68.2422C1041.44 68.9766 1040.7 69.5885 1039.97 70.0781L962.123 130.664H1033.36C1036.78 130.664 1039.72 131.827 1042.17 134.152C1044.5 136.6 1045.66 139.538 1045.66 142.965C1045.66 146.392 1044.43 149.329 1041.99 151.777C1039.66 154.103 1036.78 155.266 1033.36 155.266H926.506C923.079 155.266 920.203 154.042 917.877 151.594C915.429 149.268 914.205 146.392 914.205 142.965C914.205 139.783 915.246 137.029 917.327 134.703H917.143L917.877 134.152C918.612 133.418 919.407 132.806 920.264 132.316L999.026 71.9141H926.506C923.079 71.9141 920.203 70.6901 917.877 68.2422C915.429 65.9167 914.205 63.0404 914.205 59.6133ZM1097.02 47.3125H1105.47H1167.89C1171.32 47.4349 1174.13 48.7201 1176.33 51.168C1178.66 53.6159 1179.82 56.5534 1179.82 59.9805C1179.21 67.3242 1175.23 71.3021 1167.89 71.9141H1103.26C1098.61 72.1589 1094.76 73.9336 1091.7 77.2383C1088.64 80.543 1086.37 84.3372 1084.9 88.6211C1083.56 92.7826 1082.88 97.0664 1082.88 101.473C1082.88 105.879 1083.56 110.224 1084.9 114.508C1086.37 118.669 1088.64 122.402 1091.7 125.707C1094.76 129.012 1098.61 130.786 1103.26 131.031H1167.89C1171.32 131.154 1174.13 132.439 1176.33 134.887C1178.66 137.335 1179.82 140.272 1179.82 143.699C1179.7 147.004 1178.48 149.819 1176.15 152.145C1173.95 154.348 1171.19 155.51 1167.89 155.633H1100.51H1097.02C1088.45 155.143 1081.35 151.9 1075.72 145.902C1070.22 139.783 1066.24 132.867 1063.79 125.156C1061.46 117.445 1060.3 109.551 1060.3 101.473C1060.3 93.3945 1061.53 85.5 1063.97 77.7891C1066.42 70.0781 1070.4 63.224 1075.91 57.2266C1081.42 51.1068 1088.45 47.8021 1097.02 47.3125ZM1179.45 100.738C1179.45 104.165 1178.23 107.042 1175.78 109.367C1173.46 111.815 1170.58 113.039 1167.15 113.039H1111.71C1108.28 113.039 1105.34 111.876 1102.9 109.551C1100.57 107.103 1099.41 104.165 1099.41 100.738C1099.41 97.3112 1100.57 94.3737 1102.9 91.9258C1105.34 89.6003 1108.28 88.4375 1111.71 88.4375H1167.15C1170.58 88.4375 1173.46 89.6615 1175.78 92.1094C1178.23 94.4349 1179.45 97.3112 1179.45 100.738Z" fill="#474747"/>
</svg>
