<svg width="21" height="20" viewBox="0 0 21 20" fill="none" xmlns="http://www.w3.org/2000/svg">
<path d="M12.5001 19H8.50005L7.94905 16.52C7.29337 16.2635 6.68013 15.9095 6.13005 15.47L3.70605 16.233L1.70605 12.769L3.57805 11.051C3.47246 10.355 3.47246 9.64702 3.57805 8.951L1.70605 7.232L3.70605 3.768L6.13005 4.531C6.68037 4.09107 7.29395 3.73675 7.95005 3.48L8.50005 1H12.5001L13.0511 3.48C13.7067 3.73653 14.32 4.09051 14.8701 4.53L17.2941 3.767L19.2941 7.231L17.4221 8.949C17.5277 9.64502 17.5277 10.353 17.4221 11.049L19.2941 12.767L17.2941 16.231L14.8701 15.468C14.3201 15.9082 13.7069 16.2629 13.0511 16.52L12.5001 19Z" stroke="url(#paint0_linear_573_74)" stroke-width="2" stroke-linecap="round" stroke-linejoin="round"/>
<path d="M10.5 13C12.1569 13 13.5 11.6569 13.5 10C13.5 8.34315 12.1569 7 10.5 7C8.84315 7 7.5 8.34315 7.5 10C7.5 11.6569 8.84315 13 10.5 13Z" stroke="url(#paint1_linear_573_74)" stroke-width="2"/>
<defs>
<linearGradient id="paint0_linear_573_74" x1="10.5001" y1="1" x2="10.5001" y2="19" gradientUnits="userSpaceOnUse">
<stop stop-color="#B3D7FF"/>
<stop offset="1" stop-color="#FEC6C8"/>
</linearGradient>
<linearGradient id="paint1_linear_573_74" x1="10.5" y1="7" x2="10.5" y2="13" gradientUnits="userSpaceOnUse">
<stop stop-color="#B3D7FF"/>
<stop offset="1" stop-color="#FEC6C8"/>
</linearGradient>
</defs>
</svg>
