<svg width="25" height="24" viewBox="0 0 25 24" fill="none" xmlns="http://www.w3.org/2000/svg">
<path d="M6.52246 20.5042C6.80646 19.1102 7.49646 18.3662 8.59846 17.4662C9.7001 16.5666 11.0787 16.0752 12.501 16.0752C13.9232 16.0752 15.3018 16.5666 16.4035 17.4662C17.5045 18.3662 18.2855 19.1102 18.5685 20.5042M12.5005 13.0282C12.9399 13.0358 13.3765 12.9559 13.7847 12.793C14.1929 12.6301 14.5646 12.3875 14.8781 12.0795C15.1916 11.7714 15.4405 11.404 15.6105 10.9987C15.7805 10.5933 15.868 10.1582 15.868 9.71869C15.868 9.27917 15.7805 8.84406 15.6105 8.43873C15.4405 8.03341 15.1916 7.66599 14.8781 7.35792C14.5646 7.04984 14.1929 6.80729 13.7847 6.6444C13.3765 6.48151 12.9399 6.40155 12.5005 6.40919C11.6327 6.42428 10.8056 6.77959 10.1972 7.3986C9.58887 8.01761 9.24799 8.85079 9.24799 9.71869C9.24799 10.5866 9.58887 11.4198 10.1972 12.0388C10.8056 12.6578 11.6327 13.0131 12.5005 13.0282Z" stroke="url(#paint0_linear_573_85)" stroke-width="1.5" stroke-linecap="round" stroke-linejoin="round"/>
<path d="M15.75 2.75H9.25C5.93629 2.75 3.25 5.43629 3.25 8.75V15.25C3.25 18.5637 5.93629 21.25 9.25 21.25H15.75C19.0637 21.25 21.75 18.5637 21.75 15.25V8.75C21.75 5.43629 19.0637 2.75 15.75 2.75Z" stroke="url(#paint1_linear_573_85)" stroke-width="1.5"/>
<defs>
<linearGradient id="paint0_linear_573_85" x1="12.5455" y1="6.40869" x2="12.5455" y2="20.5042" gradientUnits="userSpaceOnUse">
<stop stop-color="#B3D7FF"/>
<stop offset="1" stop-color="#FEC6C8"/>
</linearGradient>
<linearGradient id="paint1_linear_573_85" x1="12.5" y1="2.75" x2="12.5" y2="21.25" gradientUnits="userSpaceOnUse">
<stop stop-color="#B3D7FF"/>
<stop offset="1" stop-color="#FEC6C8"/>
</linearGradient>
</defs>
</svg>
